<?xml version="1.0" standalone="no"?>
<!DOCTYPE svg PUBLIC "-//W3C//DTD SVG 20010904//EN"
 "http://www.w3.org/TR/2001/REC-SVG-20010904/DTD/svg10.dtd">
<svg version="1.0" xmlns="http://www.w3.org/2000/svg"
 width="608.000000pt" height="608.000000pt" viewBox="0 0 608.000000 608.000000"
 preserveAspectRatio="xMidYMid meet">

<g transform="translate(0.000000,608.000000) scale(0.100000,-0.100000)"
fill="#000000" stroke="none">
<path d="M2665 3335 l-25 -24 0 -271 0 -271 25 -24 c24 -25 27 -25 200 -25
l175 0 0 58 0 58 138 136 c141 141 164 155 228 145 l34 -6 0 100 c0 93 -2 102
-25 124 -21 22 -33 25 -100 25 l-75 0 40 -80 40 -80 -60 0 -60 0 -40 80 c-40
80 -40 80 -80 80 l-40 0 40 -80 40 -80 -60 0 -60 0 -40 80 c-40 80 -40 80 -80
80 l-40 0 40 -80 40 -80 -60 0 -60 0 -40 80 c-24 48 -46 80 -56 80 -8 0 -26
-11 -39 -25z"/>
<path d="M3238 2923 l-118 -117 0 -63 0 -63 63 0 63 0 117 118 c85 87 117 125
117 143 0 32 -67 99 -99 99 -17 0 -59 -34 -143 -117z m162 3 c-19 -19 -21 -19
-37 -3 -16 15 -16 18 2 37 17 19 19 19 37 3 18 -16 18 -17 -2 -37z"/>
</g>
</svg>
